<?xml version="1.0" encoding="UTF-8" standalone="no"?>
<!-- Created with Inkscape (http://www.inkscape.org/) -->

<svg
   xmlns:dc="http://purl.org/dc/elements/1.1/"
   xmlns:cc="http://creativecommons.org/ns#"
   xmlns:rdf="http://www.w3.org/1999/02/22-rdf-syntax-ns#"
   xmlns:svg="http://www.w3.org/2000/svg"
   xmlns="http://www.w3.org/2000/svg"
   xmlns:xlink="http://www.w3.org/1999/xlink"
   xmlns:sodipodi="http://sodipodi.sourceforge.net/DTD/sodipodi-0.dtd"
   xmlns:inkscape="http://www.inkscape.org/namespaces/inkscape"
   width="127.96538mm"
   height="127.83814mm"
   viewBox="0 0 127.96538 127.83814"
   version="1.1"
   id="svg8"
   inkscape:version="0.92.3 (2405546, 2018-03-11)"
   sodipodi:docname="palette-logo.svg">
  <defs
     id="defs2" />
  <sodipodi:namedview
     id="base"
     pagecolor="#ffffff"
     bordercolor="#666666"
     borderopacity="1.0"
     inkscape:pageopacity="0.0"
     inkscape:pageshadow="2"
     inkscape:zoom="1.4"
     inkscape:cx="236.47949"
     inkscape:cy="221.77684"
     inkscape:document-units="mm"
     inkscape:current-layer="layer1"
     showgrid="false"
     fit-margin-top="0"
     fit-margin-left="0"
     fit-margin-right="0"
     fit-margin-bottom="0"
     inkscape:window-width="1680"
     inkscape:window-height="987"
     inkscape:window-x="-8"
     inkscape:window-y="-8"
     inkscape:window-maximized="1" />
  <metadata
     id="metadata5">
    <rdf:RDF>
      <cc:Work
         rdf:about="">
        <dc:format>image/svg+xml</dc:format>
        <dc:type
           rdf:resource="http://purl.org/dc/dcmitype/StillImage" />
        <dc:title />
      </cc:Work>
    </rdf:RDF>
  </metadata>
  <g
     inkscape:label="Layer 1"
     inkscape:groupmode="layer"
     id="layer1"
     style="display:none"
     transform="translate(-22.923087,-54.206813)">
    <circle
       style="display:inline;fill:#000000;fill-opacity:0.39195981;stroke:#000000;stroke-width:0.26458332;stroke-opacity:0.68844222"
       r="63.610146"
       cy="113.6531"
       cx="92.475258"
       id="path3713"
       transform="translate(-5.5510684,4.4977256)" />
    <path
       style="display:inline;fill:#a7a9ab;fill-opacity:0.39622647;stroke:#58585b;stroke-width:0.26458332px;stroke-linecap:butt;stroke-linejoin:miter;stroke-opacity:1"
       d="M 84.519531,62.369141 C 48.964263,62.845862 20.850641,103.9071 34.57187,137.08667 c 7.72972,21.83365 30.330178,37.75989 53.668364,36.79419 4.731757,0.0361 11.160036,0.34126 14.435546,-3.2207 -1.23094,-11.74098 -12.395963,-21.08153 -10.052733,-33.55664 0.683279,-8.88038 10.311173,-14.54306 18.539063,-11.75 10.24183,2.6018 16.88013,12.08576 26.08594,16.28515 14.31601,-26.93745 -0.40721,-63.722171 -28.67578,-74.494139 -7.56466,-3.254022 -15.812362,-4.942993 -24.052739,-4.77539 z"
       id="path4542"
       inkscape:connector-curvature="0" />
  </g>
  <g
     inkscape:groupmode="layer"
     id="layer2"
     inkscape:label="Pattern"
     style="display:inline"
     transform="translate(-22.923087,-54.206813)">
    <path
       sodipodi:nodetypes="ssssssss"
       inkscape:connector-curvature="0"
       id="path4556"
       d="m 106.70213,178.55375 c 14.78951,-7.75911 -12.927164,-33.89985 -4.94449,-43.69857 9.76819,-11.99043 34.79899,28.12564 42.22859,11.35895 3.8382,-8.66182 6.66714,-16.48318 6.76496,-25.3256 0.50232,-45.409806 -37.06885,-66.621017 -64.572618,-66.549244 -38.283376,0.0999 -63.320245,35.28615 -63.122024,63.500004 0.180391,25.67604 18.440473,61.80489 62.460513,63.9853 7.373724,0.36524 15.619769,-0.35108 21.185069,-3.27084 z"
       style="fill:#a7a9ab;fill-opacity:1;stroke:#58585b;stroke-width:0.26458332px;stroke-linecap:butt;stroke-linejoin:miter;stroke-opacity:1" />
    <g
       id="g4540"
       transform="translate(-0.47443687)">
      <circle
         cx="130.74503"
         cy="-126.07896"
         r="8.7259417"
         id="path4520"
         style="fill:#ffffff;fill-opacity:1;stroke:#000000;stroke-width:0.14397068;stroke-opacity:0.68844222"
         transform="scale(1,-1)" />
      <circle
         style="fill-opacity:1;stroke:#58585b;stroke-width:0.23838437;stroke-opacity:1"
         id="path4527"
         cx="85.517174"
         cy="160.59557"
         r="12.040229" />
      <use
         x="0"
         y="0"
         xlink:href="#path4527"
         id="use4538"
         transform="translate(36.173616,-67.923386)"
         width="100%"
         height="100%"
         style="fill:#ea3d2f;fill-opacity:0" />
      <use
         x="0"
         y="0"
         xlink:href="#path4527"
         id="use4540"
         transform="translate(7.9083323,-86.943515)"
         width="100%"
         height="100%"
         style="fill:#ece813;fill-opacity:0" />
      <use
         x="0"
         y="0"
         xlink:href="#path4527"
         id="use4550"
         transform="translate(-40.21915,-48.020432)"
         width="100%"
         height="100%"
         style="fill:#5cea35;fill-opacity:0" />
      <use
         transform="translate(-28.503189,-16.401628)"
         x="0"
         y="0"
         xlink:href="#path4527"
         id="use4552"
         width="100%"
         height="100%"
         style="fill:#e98c21;fill-opacity:0" />
      <use
         x="0"
         y="0"
         xlink:href="#path4527"
         id="use4554"
         transform="translate(-21.552614,-75.476684)"
         width="100%"
         height="100%"
         style="fill:#57c8e7;fill-opacity:0" />
    </g>
  </g>
</svg>
